<svg width="26" height="23" viewBox="0 0 26 23" fill="none" xmlns="http://www.w3.org/2000/svg">
<g opacity="0.4">
<path d="M7.23738 7.48591L4.42688 10.3149L12.159 18.0979L25.9999 4.16591L23.1904 1.33691L12.159 12.4389L7.23738 7.48591Z" fill="#4D4D4D"/>
<path d="M20.8627 20C20.8627 20.542 20.4077 21 19.8692 21H2.98038C2.44193 21 1.98692 20.542 1.98692 20V3C1.98692 2.458 2.44193 2 2.98038 2H19.7778L21.3525 0.415C20.9034 0.146542 20.3915 0.00329969 19.8692 0H2.98038C1.34117 0 0 1.35 0 3V20C0 21.65 1.34117 23 2.98038 23H19.8692C21.5084 23 22.8496 21.65 22.8496 20V10.171L20.8627 12.171V20Z" fill="#4D4D4D"/>
</g>
</svg>
